<mxfile host="65bd71144e">
    <diagram id="7xG6jPsVmkQjifolcjC4" name="Page-1">
        <mxGraphModel dx="1337" dy="1471" grid="1" gridSize="10" guides="1" tooltips="1" connect="1" arrows="1" fold="1" page="1" pageScale="1" pageWidth="850" pageHeight="1100" math="0" shadow="0">
            <root>
                <mxCell id="0"/>
                <mxCell id="1" parent="0"/>
                <mxCell id="DBpOSrfO5cmfSUIclHoD-1" value="Registered User" style="shape=table;startSize=30;container=1;collapsible=1;childLayout=tableLayout;fixedRows=1;rowLines=0;fontStyle=1;align=center;resizeLast=1;" parent="1" vertex="1">
                    <mxGeometry x="-740" y="20" width="180" height="150" as="geometry"/>
                </mxCell>
                <mxCell id="DBpOSrfO5cmfSUIclHoD-2" value="" style="shape=partialRectangle;collapsible=0;dropTarget=0;pointerEvents=0;fillColor=none;top=0;left=0;bottom=1;right=0;points=[[0,0.5],[1,0.5]];portConstraint=eastwest;" parent="DBpOSrfO5cmfSUIclHoD-1" vertex="1">
                    <mxGeometry y="30" width="180" height="30" as="geometry"/>
                </mxCell>
                <mxCell id="DBpOSrfO5cmfSUIclHoD-3" value="PK" style="shape=partialRectangle;connectable=0;fillColor=none;top=0;left=0;bottom=0;right=0;fontStyle=1;overflow=hidden;" parent="DBpOSrfO5cmfSUIclHoD-2" vertex="1">
                    <mxGeometry width="30" height="30" as="geometry">
                        <mxRectangle width="30" height="30" as="alternateBounds"/>
                    </mxGeometry>
                </mxCell>
                <mxCell id="DBpOSrfO5cmfSUIclHoD-4" value="UserId" style="shape=partialRectangle;connectable=0;fillColor=none;top=0;left=0;bottom=0;right=0;align=left;spacingLeft=6;fontStyle=5;overflow=hidden;" parent="DBpOSrfO5cmfSUIclHoD-2" vertex="1">
                    <mxGeometry x="30" width="150" height="30" as="geometry">
                        <mxRectangle width="150" height="30" as="alternateBounds"/>
                    </mxGeometry>
                </mxCell>
                <mxCell id="DBpOSrfO5cmfSUIclHoD-5" value="" style="shape=partialRectangle;collapsible=0;dropTarget=0;pointerEvents=0;fillColor=none;top=0;left=0;bottom=0;right=0;points=[[0,0.5],[1,0.5]];portConstraint=eastwest;" parent="DBpOSrfO5cmfSUIclHoD-1" vertex="1">
                    <mxGeometry y="60" width="180" height="30" as="geometry"/>
                </mxCell>
                <mxCell id="DBpOSrfO5cmfSUIclHoD-6" value="" style="shape=partialRectangle;connectable=0;fillColor=none;top=0;left=0;bottom=0;right=0;editable=1;overflow=hidden;" parent="DBpOSrfO5cmfSUIclHoD-5" vertex="1">
                    <mxGeometry width="30" height="30" as="geometry">
                        <mxRectangle width="30" height="30" as="alternateBounds"/>
                    </mxGeometry>
                </mxCell>
                <mxCell id="DBpOSrfO5cmfSUIclHoD-7" value="First NameÂ " style="shape=partialRectangle;connectable=0;fillColor=none;top=0;left=0;bottom=0;right=0;align=left;spacingLeft=6;overflow=hidden;" parent="DBpOSrfO5cmfSUIclHoD-5" vertex="1">
                    <mxGeometry x="30" width="150" height="30" as="geometry">
                        <mxRectangle width="150" height="30" as="alternateBounds"/>
                    </mxGeometry>
                </mxCell>
                <mxCell id="DBpOSrfO5cmfSUIclHoD-8" value="" style="shape=partialRectangle;collapsible=0;dropTarget=0;pointerEvents=0;fillColor=none;top=0;left=0;bottom=0;right=0;points=[[0,0.5],[1,0.5]];portConstraint=eastwest;" parent="DBpOSrfO5cmfSUIclHoD-1" vertex="1">
                    <mxGeometry y="90" width="180" height="30" as="geometry"/>
                </mxCell>
                <mxCell id="DBpOSrfO5cmfSUIclHoD-9" value="" style="shape=partialRectangle;connectable=0;fillColor=none;top=0;left=0;bottom=0;right=0;editable=1;overflow=hidden;" parent="DBpOSrfO5cmfSUIclHoD-8" vertex="1">
                    <mxGeometry width="30" height="30" as="geometry">
                        <mxRectangle width="30" height="30" as="alternateBounds"/>
                    </mxGeometry>
                </mxCell>
                <mxCell id="DBpOSrfO5cmfSUIclHoD-10" value="Last Name" style="shape=partialRectangle;connectable=0;fillColor=none;top=0;left=0;bottom=0;right=0;align=left;spacingLeft=6;overflow=hidden;" parent="DBpOSrfO5cmfSUIclHoD-8" vertex="1">
                    <mxGeometry x="30" width="150" height="30" as="geometry">
                        <mxRectangle width="150" height="30" as="alternateBounds"/>
                    </mxGeometry>
                </mxCell>
                <mxCell id="DBpOSrfO5cmfSUIclHoD-11" value="" style="shape=partialRectangle;collapsible=0;dropTarget=0;pointerEvents=0;fillColor=none;top=0;left=0;bottom=0;right=0;points=[[0,0.5],[1,0.5]];portConstraint=eastwest;" parent="DBpOSrfO5cmfSUIclHoD-1" vertex="1">
                    <mxGeometry y="120" width="180" height="20" as="geometry"/>
                </mxCell>
                <mxCell id="DBpOSrfO5cmfSUIclHoD-12" value="" style="shape=partialRectangle;connectable=0;fillColor=none;top=0;left=0;bottom=0;right=0;editable=1;overflow=hidden;" parent="DBpOSrfO5cmfSUIclHoD-11" vertex="1">
                    <mxGeometry width="30" height="20" as="geometry">
                        <mxRectangle width="30" height="20" as="alternateBounds"/>
                    </mxGeometry>
                </mxCell>
                <mxCell id="DBpOSrfO5cmfSUIclHoD-13" value="Email" style="shape=partialRectangle;connectable=0;fillColor=none;top=0;left=0;bottom=0;right=0;align=left;spacingLeft=6;overflow=hidden;" parent="DBpOSrfO5cmfSUIclHoD-11" vertex="1">
                    <mxGeometry x="30" width="150" height="20" as="geometry">
                        <mxRectangle width="150" height="20" as="alternateBounds"/>
                    </mxGeometry>
                </mxCell>
                <mxCell id="DBpOSrfO5cmfSUIclHoD-53" value="Food Tracker" style="shape=table;startSize=30;container=1;collapsible=1;childLayout=tableLayout;fixedRows=1;rowLines=0;fontStyle=1;align=center;resizeLast=1;" parent="1" vertex="1">
                    <mxGeometry x="-130" y="-120" width="180" height="190" as="geometry"/>
                </mxCell>
                <mxCell id="DBpOSrfO5cmfSUIclHoD-54" value="" style="shape=partialRectangle;collapsible=0;dropTarget=0;pointerEvents=0;fillColor=none;top=0;left=0;bottom=1;right=0;points=[[0,0.5],[1,0.5]];portConstraint=eastwest;" parent="DBpOSrfO5cmfSUIclHoD-53" vertex="1">
                    <mxGeometry y="30" width="180" height="30" as="geometry"/>
                </mxCell>
                <mxCell id="DBpOSrfO5cmfSUIclHoD-55" value="PK" style="shape=partialRectangle;connectable=0;fillColor=none;top=0;left=0;bottom=0;right=0;fontStyle=1;overflow=hidden;" parent="DBpOSrfO5cmfSUIclHoD-54" vertex="1">
                    <mxGeometry width="30" height="30" as="geometry">
                        <mxRectangle width="30" height="30" as="alternateBounds"/>
                    </mxGeometry>
                </mxCell>
                <mxCell id="DBpOSrfO5cmfSUIclHoD-56" value="FoodID" style="shape=partialRectangle;connectable=0;fillColor=none;top=0;left=0;bottom=0;right=0;align=left;spacingLeft=6;fontStyle=5;overflow=hidden;" parent="DBpOSrfO5cmfSUIclHoD-54" vertex="1">
                    <mxGeometry x="30" width="150" height="30" as="geometry">
                        <mxRectangle width="150" height="30" as="alternateBounds"/>
                    </mxGeometry>
                </mxCell>
                <mxCell id="DBpOSrfO5cmfSUIclHoD-57" value="" style="shape=partialRectangle;collapsible=0;dropTarget=0;pointerEvents=0;fillColor=none;top=0;left=0;bottom=0;right=0;points=[[0,0.5],[1,0.5]];portConstraint=eastwest;" parent="DBpOSrfO5cmfSUIclHoD-53" vertex="1">
                    <mxGeometry y="60" width="180" height="30" as="geometry"/>
                </mxCell>
                <mxCell id="DBpOSrfO5cmfSUIclHoD-58" value="" style="shape=partialRectangle;connectable=0;fillColor=none;top=0;left=0;bottom=0;right=0;editable=1;overflow=hidden;" parent="DBpOSrfO5cmfSUIclHoD-57" vertex="1">
                    <mxGeometry width="30" height="30" as="geometry">
                        <mxRectangle width="30" height="30" as="alternateBounds"/>
                    </mxGeometry>
                </mxCell>
                <mxCell id="DBpOSrfO5cmfSUIclHoD-59" value="Date" style="shape=partialRectangle;connectable=0;fillColor=none;top=0;left=0;bottom=0;right=0;align=left;spacingLeft=6;overflow=hidden;" parent="DBpOSrfO5cmfSUIclHoD-57" vertex="1">
                    <mxGeometry x="30" width="150" height="30" as="geometry">
                        <mxRectangle width="150" height="30" as="alternateBounds"/>
                    </mxGeometry>
                </mxCell>
                <mxCell id="DBpOSrfO5cmfSUIclHoD-60" value="" style="shape=partialRectangle;collapsible=0;dropTarget=0;pointerEvents=0;fillColor=none;top=0;left=0;bottom=0;right=0;points=[[0,0.5],[1,0.5]];portConstraint=eastwest;" parent="DBpOSrfO5cmfSUIclHoD-53" vertex="1">
                    <mxGeometry y="90" width="180" height="30" as="geometry"/>
                </mxCell>
                <mxCell id="DBpOSrfO5cmfSUIclHoD-61" value="" style="shape=partialRectangle;connectable=0;fillColor=none;top=0;left=0;bottom=0;right=0;editable=1;overflow=hidden;" parent="DBpOSrfO5cmfSUIclHoD-60" vertex="1">
                    <mxGeometry width="30" height="30" as="geometry">
                        <mxRectangle width="30" height="30" as="alternateBounds"/>
                    </mxGeometry>
                </mxCell>
                <mxCell id="DBpOSrfO5cmfSUIclHoD-62" value="Breakfast" style="shape=partialRectangle;connectable=0;fillColor=none;top=0;left=0;bottom=0;right=0;align=left;spacingLeft=6;overflow=hidden;" parent="DBpOSrfO5cmfSUIclHoD-60" vertex="1">
                    <mxGeometry x="30" width="150" height="30" as="geometry">
                        <mxRectangle width="150" height="30" as="alternateBounds"/>
                    </mxGeometry>
                </mxCell>
                <mxCell id="DBpOSrfO5cmfSUIclHoD-63" value="" style="shape=partialRectangle;collapsible=0;dropTarget=0;pointerEvents=0;fillColor=none;top=0;left=0;bottom=0;right=0;points=[[0,0.5],[1,0.5]];portConstraint=eastwest;" parent="DBpOSrfO5cmfSUIclHoD-53" vertex="1">
                    <mxGeometry y="120" width="180" height="30" as="geometry"/>
                </mxCell>
                <mxCell id="DBpOSrfO5cmfSUIclHoD-64" value="" style="shape=partialRectangle;connectable=0;fillColor=none;top=0;left=0;bottom=0;right=0;editable=1;overflow=hidden;" parent="DBpOSrfO5cmfSUIclHoD-63" vertex="1">
                    <mxGeometry width="30" height="30" as="geometry">
                        <mxRectangle width="30" height="30" as="alternateBounds"/>
                    </mxGeometry>
                </mxCell>
                <mxCell id="DBpOSrfO5cmfSUIclHoD-65" value="Lunch" style="shape=partialRectangle;connectable=0;fillColor=none;top=0;left=0;bottom=0;right=0;align=left;spacingLeft=6;overflow=hidden;" parent="DBpOSrfO5cmfSUIclHoD-63" vertex="1">
                    <mxGeometry x="30" width="150" height="30" as="geometry">
                        <mxRectangle width="150" height="30" as="alternateBounds"/>
                    </mxGeometry>
                </mxCell>
                <mxCell id="DBpOSrfO5cmfSUIclHoD-66" value="" style="shape=partialRectangle;collapsible=0;dropTarget=0;pointerEvents=0;fillColor=none;top=0;left=0;bottom=0;right=0;points=[[0,0.5],[1,0.5]];portConstraint=eastwest;" parent="DBpOSrfO5cmfSUIclHoD-53" vertex="1">
                    <mxGeometry y="150" width="180" height="30" as="geometry"/>
                </mxCell>
                <mxCell id="DBpOSrfO5cmfSUIclHoD-67" value="" style="shape=partialRectangle;connectable=0;fillColor=none;top=0;left=0;bottom=0;right=0;editable=1;overflow=hidden;" parent="DBpOSrfO5cmfSUIclHoD-66" vertex="1">
                    <mxGeometry width="30" height="30" as="geometry">
                        <mxRectangle width="30" height="30" as="alternateBounds"/>
                    </mxGeometry>
                </mxCell>
                <mxCell id="DBpOSrfO5cmfSUIclHoD-68" value="Dinner" style="shape=partialRectangle;connectable=0;fillColor=none;top=0;left=0;bottom=0;right=0;align=left;spacingLeft=6;overflow=hidden;" parent="DBpOSrfO5cmfSUIclHoD-66" vertex="1">
                    <mxGeometry x="30" width="150" height="30" as="geometry">
                        <mxRectangle width="150" height="30" as="alternateBounds"/>
                    </mxGeometry>
                </mxCell>
                <mxCell id="DBpOSrfO5cmfSUIclHoD-69" value="" style="group" parent="1" vertex="1" connectable="0">
                    <mxGeometry x="-850" y="520" width="360" height="170" as="geometry"/>
                </mxCell>
                <mxCell id="DBpOSrfO5cmfSUIclHoD-17" value="Registered Users" style="shape=table;startSize=30;container=1;collapsible=0;childLayout=tableLayout;fontStyle=1;align=center;pointerEvents=1;" parent="DBpOSrfO5cmfSUIclHoD-69" vertex="1">
                    <mxGeometry width="245.4545454545454" height="169.99999999999994" as="geometry"/>
                </mxCell>
                <mxCell id="DBpOSrfO5cmfSUIclHoD-18" value="" style="shape=partialRectangle;html=1;whiteSpace=wrap;collapsible=0;dropTarget=0;pointerEvents=0;fillColor=none;top=0;left=0;bottom=0;right=0;points=[[0,0.5],[1,0.5]];portConstraint=eastwest;" parent="DBpOSrfO5cmfSUIclHoD-17" vertex="1">
                    <mxGeometry y="30" width="245.4545454545454" height="19" as="geometry"/>
                </mxCell>
                <mxCell id="DBpOSrfO5cmfSUIclHoD-19" value="UserId" style="shape=partialRectangle;html=1;whiteSpace=wrap;connectable=0;fillColor=none;top=0;left=0;bottom=0;right=0;overflow=hidden;pointerEvents=1;" parent="DBpOSrfO5cmfSUIclHoD-18" vertex="1">
                    <mxGeometry width="82" height="19" as="geometry">
                        <mxRectangle width="82" height="19" as="alternateBounds"/>
                    </mxGeometry>
                </mxCell>
                <mxCell id="DBpOSrfO5cmfSUIclHoD-20" value="First Name" style="shape=partialRectangle;html=1;whiteSpace=wrap;connectable=0;fillColor=none;top=0;left=0;bottom=0;right=0;overflow=hidden;pointerEvents=1;" parent="DBpOSrfO5cmfSUIclHoD-18" vertex="1">
                    <mxGeometry x="82" width="81" height="19" as="geometry">
                        <mxRectangle width="81" height="19" as="alternateBounds"/>
                    </mxGeometry>
                </mxCell>
                <mxCell id="DBpOSrfO5cmfSUIclHoD-21" value="Last Name" style="shape=partialRectangle;html=1;whiteSpace=wrap;connectable=0;fillColor=none;top=0;left=0;bottom=0;right=0;overflow=hidden;pointerEvents=1;" parent="DBpOSrfO5cmfSUIclHoD-18" vertex="1">
                    <mxGeometry x="163" width="82" height="19" as="geometry">
                        <mxRectangle width="82" height="19" as="alternateBounds"/>
                    </mxGeometry>
                </mxCell>
                <mxCell id="DBpOSrfO5cmfSUIclHoD-22" value="" style="shape=partialRectangle;html=1;whiteSpace=wrap;collapsible=0;dropTarget=0;pointerEvents=0;fillColor=none;top=0;left=0;bottom=0;right=0;points=[[0,0.5],[1,0.5]];portConstraint=eastwest;" parent="DBpOSrfO5cmfSUIclHoD-17" vertex="1">
                    <mxGeometry y="49" width="245.4545454545454" height="41" as="geometry"/>
                </mxCell>
                <mxCell id="DBpOSrfO5cmfSUIclHoD-23" value="1" style="shape=partialRectangle;html=1;whiteSpace=wrap;connectable=0;fillColor=none;top=0;left=0;bottom=0;right=0;overflow=hidden;pointerEvents=1;" parent="DBpOSrfO5cmfSUIclHoD-22" vertex="1">
                    <mxGeometry width="82" height="41" as="geometry">
                        <mxRectangle width="82" height="41" as="alternateBounds"/>
                    </mxGeometry>
                </mxCell>
                <mxCell id="DBpOSrfO5cmfSUIclHoD-24" value="John" style="shape=partialRectangle;html=1;whiteSpace=wrap;connectable=0;fillColor=none;top=0;left=0;bottom=0;right=0;overflow=hidden;pointerEvents=1;" parent="DBpOSrfO5cmfSUIclHoD-22" vertex="1">
                    <mxGeometry x="82" width="81" height="41" as="geometry">
                        <mxRectangle width="81" height="41" as="alternateBounds"/>
                    </mxGeometry>
                </mxCell>
                <mxCell id="DBpOSrfO5cmfSUIclHoD-25" value="Smith" style="shape=partialRectangle;html=1;whiteSpace=wrap;connectable=0;fillColor=none;top=0;left=0;bottom=0;right=0;overflow=hidden;pointerEvents=1;" parent="DBpOSrfO5cmfSUIclHoD-22" vertex="1">
                    <mxGeometry x="163" width="82" height="41" as="geometry">
                        <mxRectangle width="82" height="41" as="alternateBounds"/>
                    </mxGeometry>
                </mxCell>
                <mxCell id="DBpOSrfO5cmfSUIclHoD-26" value="" style="shape=partialRectangle;html=1;whiteSpace=wrap;collapsible=0;dropTarget=0;pointerEvents=0;fillColor=none;top=0;left=0;bottom=0;right=0;points=[[0,0.5],[1,0.5]];portConstraint=eastwest;" parent="DBpOSrfO5cmfSUIclHoD-17" vertex="1">
                    <mxGeometry y="90" width="245.4545454545454" height="39" as="geometry"/>
                </mxCell>
                <mxCell id="DBpOSrfO5cmfSUIclHoD-27" value="2" style="shape=partialRectangle;html=1;whiteSpace=wrap;connectable=0;fillColor=none;top=0;left=0;bottom=0;right=0;overflow=hidden;pointerEvents=1;" parent="DBpOSrfO5cmfSUIclHoD-26" vertex="1">
                    <mxGeometry width="82" height="39" as="geometry">
                        <mxRectangle width="82" height="39" as="alternateBounds"/>
                    </mxGeometry>
                </mxCell>
                <mxCell id="DBpOSrfO5cmfSUIclHoD-28" value="Tim" style="shape=partialRectangle;html=1;whiteSpace=wrap;connectable=0;fillColor=none;top=0;left=0;bottom=0;right=0;overflow=hidden;pointerEvents=1;" parent="DBpOSrfO5cmfSUIclHoD-26" vertex="1">
                    <mxGeometry x="82" width="81" height="39" as="geometry">
                        <mxRectangle width="81" height="39" as="alternateBounds"/>
                    </mxGeometry>
                </mxCell>
                <mxCell id="DBpOSrfO5cmfSUIclHoD-29" value="Timson" style="shape=partialRectangle;html=1;whiteSpace=wrap;connectable=0;fillColor=none;top=0;left=0;bottom=0;right=0;overflow=hidden;pointerEvents=1;" parent="DBpOSrfO5cmfSUIclHoD-26" vertex="1">
                    <mxGeometry x="163" width="82" height="39" as="geometry">
                        <mxRectangle width="82" height="39" as="alternateBounds"/>
                    </mxGeometry>
                </mxCell>
                <mxCell id="DBpOSrfO5cmfSUIclHoD-42" value="" style="shape=partialRectangle;html=1;whiteSpace=wrap;collapsible=0;dropTarget=0;pointerEvents=0;fillColor=none;top=0;left=0;bottom=0;right=0;points=[[0,0.5],[1,0.5]];portConstraint=eastwest;" parent="DBpOSrfO5cmfSUIclHoD-17" vertex="1">
                    <mxGeometry y="129" width="245.4545454545454" height="41" as="geometry"/>
                </mxCell>
                <mxCell id="DBpOSrfO5cmfSUIclHoD-43" value="3" style="shape=partialRectangle;html=1;whiteSpace=wrap;connectable=0;fillColor=none;top=0;left=0;bottom=0;right=0;overflow=hidden;pointerEvents=1;" parent="DBpOSrfO5cmfSUIclHoD-42" vertex="1">
                    <mxGeometry width="82" height="41" as="geometry">
                        <mxRectangle width="82" height="41" as="alternateBounds"/>
                    </mxGeometry>
                </mxCell>
                <mxCell id="DBpOSrfO5cmfSUIclHoD-44" value="Phil" style="shape=partialRectangle;html=1;whiteSpace=wrap;connectable=0;fillColor=none;top=0;left=0;bottom=0;right=0;overflow=hidden;pointerEvents=1;" parent="DBpOSrfO5cmfSUIclHoD-42" vertex="1">
                    <mxGeometry x="82" width="81" height="41" as="geometry">
                        <mxRectangle width="81" height="41" as="alternateBounds"/>
                    </mxGeometry>
                </mxCell>
                <mxCell id="DBpOSrfO5cmfSUIclHoD-45" value="Philly" style="shape=partialRectangle;html=1;whiteSpace=wrap;connectable=0;fillColor=none;top=0;left=0;bottom=0;right=0;overflow=hidden;pointerEvents=1;" parent="DBpOSrfO5cmfSUIclHoD-42" vertex="1">
                    <mxGeometry x="163" width="82" height="41" as="geometry">
                        <mxRectangle width="82" height="41" as="alternateBounds"/>
                    </mxGeometry>
                </mxCell>
                <mxCell id="DBpOSrfO5cmfSUIclHoD-52" value="" style="group" parent="DBpOSrfO5cmfSUIclHoD-69" vertex="1" connectable="0">
                    <mxGeometry x="245.4545454545454" width="114.54545454545453" height="169.99999999999994" as="geometry"/>
                </mxCell>
                <mxCell id="DBpOSrfO5cmfSUIclHoD-46" value="" style="rounded=0;whiteSpace=wrap;html=1;" parent="DBpOSrfO5cmfSUIclHoD-52" vertex="1">
                    <mxGeometry width="114.54545454545453" height="29.999999999999993" as="geometry"/>
                </mxCell>
                <mxCell id="DBpOSrfO5cmfSUIclHoD-47" value="Email" style="rounded=0;whiteSpace=wrap;html=1;" parent="DBpOSrfO5cmfSUIclHoD-52" vertex="1">
                    <mxGeometry y="29.999999999999993" width="114.54545454545453" height="19.999999999999996" as="geometry"/>
                </mxCell>
                <mxCell id="DBpOSrfO5cmfSUIclHoD-49" value="Smith@gmail.com" style="rounded=0;whiteSpace=wrap;html=1;" parent="DBpOSrfO5cmfSUIclHoD-52" vertex="1">
                    <mxGeometry y="49.99999999999999" width="114.54545454545453" height="39.99999999999999" as="geometry"/>
                </mxCell>
                <mxCell id="DBpOSrfO5cmfSUIclHoD-50" value="Tim@gmail.com" style="rounded=0;whiteSpace=wrap;html=1;" parent="DBpOSrfO5cmfSUIclHoD-52" vertex="1">
                    <mxGeometry y="89.99999999999999" width="114.54545454545453" height="39.99999999999999" as="geometry"/>
                </mxCell>
                <mxCell id="DBpOSrfO5cmfSUIclHoD-51" value="Philly@gmail.com" style="rounded=0;whiteSpace=wrap;html=1;" parent="DBpOSrfO5cmfSUIclHoD-52" vertex="1">
                    <mxGeometry y="129.99999999999997" width="114.54545454545453" height="39.99999999999999" as="geometry"/>
                </mxCell>
                <mxCell id="DBpOSrfO5cmfSUIclHoD-94" value="" style="group" parent="1" vertex="1" connectable="0">
                    <mxGeometry x="-470" y="630" width="605" height="320" as="geometry"/>
                </mxCell>
                <mxCell id="DBpOSrfO5cmfSUIclHoD-70" value="FoodID" style="shape=table;startSize=30;container=1;collapsible=0;childLayout=tableLayout;fontStyle=1;align=center;pointerEvents=1;" parent="DBpOSrfO5cmfSUIclHoD-94" vertex="1">
                    <mxGeometry width="436.1627906976744" height="320" as="geometry"/>
                </mxCell>
                <mxCell id="DBpOSrfO5cmfSUIclHoD-71" value="" style="shape=partialRectangle;html=1;whiteSpace=wrap;collapsible=0;dropTarget=0;pointerEvents=0;fillColor=none;top=0;left=0;bottom=0;right=0;points=[[0,0.5],[1,0.5]];portConstraint=eastwest;" parent="DBpOSrfO5cmfSUIclHoD-70" vertex="1">
                    <mxGeometry y="30" width="436.1627906976744" height="73" as="geometry"/>
                </mxCell>
                <mxCell id="DBpOSrfO5cmfSUIclHoD-72" value="Date" style="shape=partialRectangle;html=1;whiteSpace=wrap;connectable=0;fillColor=none;top=0;left=0;bottom=0;right=0;overflow=hidden;pointerEvents=1;" parent="DBpOSrfO5cmfSUIclHoD-71" vertex="1">
                    <mxGeometry width="145" height="73" as="geometry">
                        <mxRectangle width="145" height="73" as="alternateBounds"/>
                    </mxGeometry>
                </mxCell>
                <mxCell id="DBpOSrfO5cmfSUIclHoD-73" value="Breakfast" style="shape=partialRectangle;html=1;whiteSpace=wrap;connectable=0;fillColor=none;top=0;left=0;bottom=0;right=0;overflow=hidden;pointerEvents=1;" parent="DBpOSrfO5cmfSUIclHoD-71" vertex="1">
                    <mxGeometry x="145" width="147" height="73" as="geometry">
                        <mxRectangle width="147" height="73" as="alternateBounds"/>
                    </mxGeometry>
                </mxCell>
                <mxCell id="DBpOSrfO5cmfSUIclHoD-74" value="Lunch" style="shape=partialRectangle;html=1;whiteSpace=wrap;connectable=0;fillColor=none;top=0;left=0;bottom=0;right=0;overflow=hidden;pointerEvents=1;" parent="DBpOSrfO5cmfSUIclHoD-71" vertex="1">
                    <mxGeometry x="292" width="144" height="73" as="geometry">
                        <mxRectangle width="144" height="73" as="alternateBounds"/>
                    </mxGeometry>
                </mxCell>
                <mxCell id="DBpOSrfO5cmfSUIclHoD-75" value="" style="shape=partialRectangle;html=1;whiteSpace=wrap;collapsible=0;dropTarget=0;pointerEvents=0;fillColor=none;top=0;left=0;bottom=0;right=0;points=[[0,0.5],[1,0.5]];portConstraint=eastwest;" parent="DBpOSrfO5cmfSUIclHoD-70" vertex="1">
                    <mxGeometry y="103" width="436.1627906976744" height="72" as="geometry"/>
                </mxCell>
                <mxCell id="DBpOSrfO5cmfSUIclHoD-76" value="10/1/2021" style="shape=partialRectangle;html=1;whiteSpace=wrap;connectable=0;fillColor=none;top=0;left=0;bottom=0;right=0;overflow=hidden;pointerEvents=1;" parent="DBpOSrfO5cmfSUIclHoD-75" vertex="1">
                    <mxGeometry width="145" height="72" as="geometry">
                        <mxRectangle width="145" height="72" as="alternateBounds"/>
                    </mxGeometry>
                </mxCell>
                <mxCell id="DBpOSrfO5cmfSUIclHoD-77" value="Omelet made w/ 4 eggs, onions, green peppers, cheese" style="shape=partialRectangle;html=1;whiteSpace=wrap;connectable=0;fillColor=none;top=0;left=0;bottom=0;right=0;overflow=hidden;pointerEvents=1;" parent="DBpOSrfO5cmfSUIclHoD-75" vertex="1">
                    <mxGeometry x="145" width="147" height="72" as="geometry">
                        <mxRectangle width="147" height="72" as="alternateBounds"/>
                    </mxGeometry>
                </mxCell>
                <mxCell id="DBpOSrfO5cmfSUIclHoD-78" value="1/2 lb ground beef w/ taco seasoning, 2 cups lettuce, onion, green peppers, cheese, 4 tsb ranch" style="shape=partialRectangle;html=1;whiteSpace=wrap;connectable=0;fillColor=none;top=0;left=0;bottom=0;right=0;overflow=hidden;pointerEvents=1;" parent="DBpOSrfO5cmfSUIclHoD-75" vertex="1">
                    <mxGeometry x="292" width="144" height="72" as="geometry">
                        <mxRectangle width="144" height="72" as="alternateBounds"/>
                    </mxGeometry>
                </mxCell>
                <mxCell id="DBpOSrfO5cmfSUIclHoD-83" value="" style="shape=partialRectangle;html=1;whiteSpace=wrap;collapsible=0;dropTarget=0;pointerEvents=0;fillColor=none;top=0;left=0;bottom=0;right=0;points=[[0,0.5],[1,0.5]];portConstraint=eastwest;" parent="DBpOSrfO5cmfSUIclHoD-70" vertex="1">
                    <mxGeometry y="175" width="436.1627906976744" height="73" as="geometry"/>
                </mxCell>
                <mxCell id="DBpOSrfO5cmfSUIclHoD-84" value="10/2/2021" style="shape=partialRectangle;html=1;whiteSpace=wrap;connectable=0;fillColor=none;top=0;left=0;bottom=0;right=0;overflow=hidden;pointerEvents=1;" parent="DBpOSrfO5cmfSUIclHoD-83" vertex="1">
                    <mxGeometry width="145" height="73" as="geometry">
                        <mxRectangle width="145" height="73" as="alternateBounds"/>
                    </mxGeometry>
                </mxCell>
                <mxCell id="DBpOSrfO5cmfSUIclHoD-85" value="&lt;span&gt;Omelet made w/ 4 eggs, onions, green peppers, cheese&lt;/span&gt;" style="shape=partialRectangle;html=1;whiteSpace=wrap;connectable=0;fillColor=none;top=0;left=0;bottom=0;right=0;overflow=hidden;pointerEvents=1;" parent="DBpOSrfO5cmfSUIclHoD-83" vertex="1">
                    <mxGeometry x="145" width="147" height="73" as="geometry">
                        <mxRectangle width="147" height="73" as="alternateBounds"/>
                    </mxGeometry>
                </mxCell>
                <mxCell id="DBpOSrfO5cmfSUIclHoD-86" value="&lt;span&gt;1/2 lb ground beef w/ taco seasoning, 2 cups lettuce, onion, green peppers, cheese, 4 tsb ranch&lt;/span&gt;" style="shape=partialRectangle;html=1;whiteSpace=wrap;connectable=0;fillColor=none;top=0;left=0;bottom=0;right=0;overflow=hidden;pointerEvents=1;" parent="DBpOSrfO5cmfSUIclHoD-83" vertex="1">
                    <mxGeometry x="292" width="144" height="73" as="geometry">
                        <mxRectangle width="144" height="73" as="alternateBounds"/>
                    </mxGeometry>
                </mxCell>
                <mxCell id="DBpOSrfO5cmfSUIclHoD-79" value="" style="shape=partialRectangle;html=1;whiteSpace=wrap;collapsible=0;dropTarget=0;pointerEvents=0;fillColor=none;top=0;left=0;bottom=0;right=0;points=[[0,0.5],[1,0.5]];portConstraint=eastwest;" parent="DBpOSrfO5cmfSUIclHoD-70" vertex="1">
                    <mxGeometry y="248" width="436.1627906976744" height="72" as="geometry"/>
                </mxCell>
                <mxCell id="DBpOSrfO5cmfSUIclHoD-80" value="10/3/2021" style="shape=partialRectangle;html=1;whiteSpace=wrap;connectable=0;fillColor=none;top=0;left=0;bottom=0;right=0;overflow=hidden;pointerEvents=1;" parent="DBpOSrfO5cmfSUIclHoD-79" vertex="1">
                    <mxGeometry width="145" height="72" as="geometry">
                        <mxRectangle width="145" height="72" as="alternateBounds"/>
                    </mxGeometry>
                </mxCell>
                <mxCell id="DBpOSrfO5cmfSUIclHoD-81" value="&lt;span&gt;Omelet made w/ 4 eggs, onions, green peppers, cheese&lt;/span&gt;" style="shape=partialRectangle;html=1;whiteSpace=wrap;connectable=0;fillColor=none;top=0;left=0;bottom=0;right=0;overflow=hidden;pointerEvents=1;" parent="DBpOSrfO5cmfSUIclHoD-79" vertex="1">
                    <mxGeometry x="145" width="147" height="72" as="geometry">
                        <mxRectangle width="147" height="72" as="alternateBounds"/>
                    </mxGeometry>
                </mxCell>
                <mxCell id="DBpOSrfO5cmfSUIclHoD-82" value="&lt;span&gt;1/2 lb ground beef w/ taco seasoning, 2 cups lettuce, onion, green peppers, cheese, 4 tsb ranch&lt;/span&gt;" style="shape=partialRectangle;html=1;whiteSpace=wrap;connectable=0;fillColor=none;top=0;left=0;bottom=0;right=0;overflow=hidden;pointerEvents=1;" parent="DBpOSrfO5cmfSUIclHoD-79" vertex="1">
                    <mxGeometry x="292" width="144" height="72" as="geometry">
                        <mxRectangle width="144" height="72" as="alternateBounds"/>
                    </mxGeometry>
                </mxCell>
                <mxCell id="DBpOSrfO5cmfSUIclHoD-87" value="" style="rounded=0;whiteSpace=wrap;html=1;" parent="DBpOSrfO5cmfSUIclHoD-94" vertex="1">
                    <mxGeometry x="436.16" width="168.84" height="30" as="geometry"/>
                </mxCell>
                <mxCell id="DBpOSrfO5cmfSUIclHoD-88" value="Dinner" style="rounded=0;whiteSpace=wrap;html=1;" parent="DBpOSrfO5cmfSUIclHoD-94" vertex="1">
                    <mxGeometry x="436.16" y="30" width="168.84" height="70" as="geometry"/>
                </mxCell>
                <mxCell id="DBpOSrfO5cmfSUIclHoD-89" value="8 oz ribeye, 1 cup mashed potatoes, 4 celery sticks w/ peanut butter, 3 brazil nuts&amp;nbsp;" style="rounded=0;whiteSpace=wrap;html=1;" parent="DBpOSrfO5cmfSUIclHoD-94" vertex="1">
                    <mxGeometry x="436.1627906976744" y="110.76858299595139" width="168.83720930232556" height="67.36842105263158" as="geometry"/>
                </mxCell>
                <mxCell id="DBpOSrfO5cmfSUIclHoD-90" value="3 chicken thighs, 1 cup mashed potatoes, 4 celery sticks w/ peanut butter, 3 brazil nuts." style="rounded=0;whiteSpace=wrap;html=1;" parent="DBpOSrfO5cmfSUIclHoD-94" vertex="1">
                    <mxGeometry x="436.1646666666666" y="178.1415384615385" width="168.8353333333333" height="80.32000000000001" as="geometry"/>
                </mxCell>
                <mxCell id="DBpOSrfO5cmfSUIclHoD-91" value="&lt;span&gt;8 oz ribeye, 1 cup mashed potatoes, 4 celery sticks w/ peanut butter, 3 brazil nuts&amp;nbsp;&lt;/span&gt;" style="rounded=0;whiteSpace=wrap;html=1;" parent="DBpOSrfO5cmfSUIclHoD-94" vertex="1">
                    <mxGeometry x="436.1627906976744" y="252.63157894736847" width="168.83720930232556" height="67.36842105263158" as="geometry"/>
                </mxCell>
                <mxCell id="DBpOSrfO5cmfSUIclHoD-110" value="" style="edgeStyle=entityRelationEdgeStyle;fontSize=12;html=1;endArrow=oval;startArrow=ERmandOne;rounded=0;endFill=0;" parent="1" target="DBpOSrfO5cmfSUIclHoD-57" edge="1">
                    <mxGeometry width="100" height="100" relative="1" as="geometry">
                        <mxPoint x="-560" y="100" as="sourcePoint"/>
                        <mxPoint x="-460" as="targetPoint"/>
                    </mxGeometry>
                </mxCell>
                <mxCell id="DBpOSrfO5cmfSUIclHoD-111" value="Exercise Tracker" style="shape=table;startSize=30;container=1;collapsible=1;childLayout=tableLayout;fixedRows=1;rowLines=0;fontStyle=1;align=center;resizeLast=1;" parent="1" vertex="1">
                    <mxGeometry x="-130" y="120" width="180" height="220" as="geometry"/>
                </mxCell>
                <mxCell id="DBpOSrfO5cmfSUIclHoD-112" value="" style="shape=partialRectangle;collapsible=0;dropTarget=0;pointerEvents=0;fillColor=none;top=0;left=0;bottom=1;right=0;points=[[0,0.5],[1,0.5]];portConstraint=eastwest;" parent="DBpOSrfO5cmfSUIclHoD-111" vertex="1">
                    <mxGeometry y="30" width="180" height="30" as="geometry"/>
                </mxCell>
                <mxCell id="DBpOSrfO5cmfSUIclHoD-113" value="PK" style="shape=partialRectangle;connectable=0;fillColor=none;top=0;left=0;bottom=0;right=0;fontStyle=1;overflow=hidden;" parent="DBpOSrfO5cmfSUIclHoD-112" vertex="1">
                    <mxGeometry width="30" height="30" as="geometry">
                        <mxRectangle width="30" height="30" as="alternateBounds"/>
                    </mxGeometry>
                </mxCell>
                <mxCell id="DBpOSrfO5cmfSUIclHoD-114" value="ExerciseId" style="shape=partialRectangle;connectable=0;fillColor=none;top=0;left=0;bottom=0;right=0;align=left;spacingLeft=6;fontStyle=5;overflow=hidden;" parent="DBpOSrfO5cmfSUIclHoD-112" vertex="1">
                    <mxGeometry x="30" width="150" height="30" as="geometry">
                        <mxRectangle width="150" height="30" as="alternateBounds"/>
                    </mxGeometry>
                </mxCell>
                <mxCell id="DBpOSrfO5cmfSUIclHoD-115" value="" style="shape=partialRectangle;collapsible=0;dropTarget=0;pointerEvents=0;fillColor=none;top=0;left=0;bottom=0;right=0;points=[[0,0.5],[1,0.5]];portConstraint=eastwest;" parent="DBpOSrfO5cmfSUIclHoD-111" vertex="1">
                    <mxGeometry y="60" width="180" height="30" as="geometry"/>
                </mxCell>
                <mxCell id="DBpOSrfO5cmfSUIclHoD-116" value="" style="shape=partialRectangle;connectable=0;fillColor=none;top=0;left=0;bottom=0;right=0;editable=1;overflow=hidden;" parent="DBpOSrfO5cmfSUIclHoD-115" vertex="1">
                    <mxGeometry width="30" height="30" as="geometry">
                        <mxRectangle width="30" height="30" as="alternateBounds"/>
                    </mxGeometry>
                </mxCell>
                <mxCell id="DBpOSrfO5cmfSUIclHoD-117" value="Date" style="shape=partialRectangle;connectable=0;fillColor=none;top=0;left=0;bottom=0;right=0;align=left;spacingLeft=6;overflow=hidden;" parent="DBpOSrfO5cmfSUIclHoD-115" vertex="1">
                    <mxGeometry x="30" width="150" height="30" as="geometry">
                        <mxRectangle width="150" height="30" as="alternateBounds"/>
                    </mxGeometry>
                </mxCell>
                <mxCell id="DBpOSrfO5cmfSUIclHoD-118" value="" style="shape=partialRectangle;collapsible=0;dropTarget=0;pointerEvents=0;fillColor=none;top=0;left=0;bottom=0;right=0;points=[[0,0.5],[1,0.5]];portConstraint=eastwest;" parent="DBpOSrfO5cmfSUIclHoD-111" vertex="1">
                    <mxGeometry y="90" width="180" height="30" as="geometry"/>
                </mxCell>
                <mxCell id="DBpOSrfO5cmfSUIclHoD-119" value="" style="shape=partialRectangle;connectable=0;fillColor=none;top=0;left=0;bottom=0;right=0;editable=1;overflow=hidden;" parent="DBpOSrfO5cmfSUIclHoD-118" vertex="1">
                    <mxGeometry width="30" height="30" as="geometry">
                        <mxRectangle width="30" height="30" as="alternateBounds"/>
                    </mxGeometry>
                </mxCell>
                <mxCell id="DBpOSrfO5cmfSUIclHoD-120" value="Exercise 1" style="shape=partialRectangle;connectable=0;fillColor=none;top=0;left=0;bottom=0;right=0;align=left;spacingLeft=6;overflow=hidden;" parent="DBpOSrfO5cmfSUIclHoD-118" vertex="1">
                    <mxGeometry x="30" width="150" height="30" as="geometry">
                        <mxRectangle width="150" height="30" as="alternateBounds"/>
                    </mxGeometry>
                </mxCell>
                <mxCell id="DBpOSrfO5cmfSUIclHoD-121" value="" style="shape=partialRectangle;collapsible=0;dropTarget=0;pointerEvents=0;fillColor=none;top=0;left=0;bottom=0;right=0;points=[[0,0.5],[1,0.5]];portConstraint=eastwest;" parent="DBpOSrfO5cmfSUIclHoD-111" vertex="1">
                    <mxGeometry y="120" width="180" height="30" as="geometry"/>
                </mxCell>
                <mxCell id="DBpOSrfO5cmfSUIclHoD-122" value="" style="shape=partialRectangle;connectable=0;fillColor=none;top=0;left=0;bottom=0;right=0;editable=1;overflow=hidden;" parent="DBpOSrfO5cmfSUIclHoD-121" vertex="1">
                    <mxGeometry width="30" height="30" as="geometry">
                        <mxRectangle width="30" height="30" as="alternateBounds"/>
                    </mxGeometry>
                </mxCell>
                <mxCell id="DBpOSrfO5cmfSUIclHoD-123" value="Sets" style="shape=partialRectangle;connectable=0;fillColor=none;top=0;left=0;bottom=0;right=0;align=left;spacingLeft=6;overflow=hidden;" parent="DBpOSrfO5cmfSUIclHoD-121" vertex="1">
                    <mxGeometry x="30" width="150" height="30" as="geometry">
                        <mxRectangle width="150" height="30" as="alternateBounds"/>
                    </mxGeometry>
                </mxCell>
                <mxCell id="DBpOSrfO5cmfSUIclHoD-124" value="" style="shape=partialRectangle;collapsible=0;dropTarget=0;pointerEvents=0;fillColor=none;top=0;left=0;bottom=0;right=0;points=[[0,0.5],[1,0.5]];portConstraint=eastwest;" parent="DBpOSrfO5cmfSUIclHoD-111" vertex="1">
                    <mxGeometry y="150" width="180" height="30" as="geometry"/>
                </mxCell>
                <mxCell id="DBpOSrfO5cmfSUIclHoD-125" value="" style="shape=partialRectangle;connectable=0;fillColor=none;top=0;left=0;bottom=0;right=0;editable=1;overflow=hidden;" parent="DBpOSrfO5cmfSUIclHoD-124" vertex="1">
                    <mxGeometry width="30" height="30" as="geometry">
                        <mxRectangle width="30" height="30" as="alternateBounds"/>
                    </mxGeometry>
                </mxCell>
                <mxCell id="DBpOSrfO5cmfSUIclHoD-126" value="Reps" style="shape=partialRectangle;connectable=0;fillColor=none;top=0;left=0;bottom=0;right=0;align=left;spacingLeft=6;overflow=hidden;" parent="DBpOSrfO5cmfSUIclHoD-124" vertex="1">
                    <mxGeometry x="30" width="150" height="30" as="geometry">
                        <mxRectangle width="150" height="30" as="alternateBounds"/>
                    </mxGeometry>
                </mxCell>
                <mxCell id="DBpOSrfO5cmfSUIclHoD-127" value="" style="shape=partialRectangle;collapsible=0;dropTarget=0;pointerEvents=0;fillColor=none;top=0;left=0;bottom=0;right=0;points=[[0,0.5],[1,0.5]];portConstraint=eastwest;" parent="DBpOSrfO5cmfSUIclHoD-111" vertex="1">
                    <mxGeometry y="180" width="180" height="30" as="geometry"/>
                </mxCell>
                <mxCell id="DBpOSrfO5cmfSUIclHoD-128" value="" style="shape=partialRectangle;connectable=0;fillColor=none;top=0;left=0;bottom=0;right=0;editable=1;overflow=hidden;" parent="DBpOSrfO5cmfSUIclHoD-127" vertex="1">
                    <mxGeometry width="30" height="30" as="geometry">
                        <mxRectangle width="30" height="30" as="alternateBounds"/>
                    </mxGeometry>
                </mxCell>
                <mxCell id="DBpOSrfO5cmfSUIclHoD-129" value="Weight" style="shape=partialRectangle;connectable=0;fillColor=none;top=0;left=0;bottom=0;right=0;align=left;spacingLeft=6;overflow=hidden;" parent="DBpOSrfO5cmfSUIclHoD-127" vertex="1">
                    <mxGeometry x="30" width="150" height="30" as="geometry">
                        <mxRectangle width="150" height="30" as="alternateBounds"/>
                    </mxGeometry>
                </mxCell>
                <mxCell id="DBpOSrfO5cmfSUIclHoD-130" value="" style="edgeStyle=entityRelationEdgeStyle;fontSize=12;html=1;endArrow=circle;endFill=0;rounded=0;entryX=0;entryY=0.5;entryDx=0;entryDy=0;startArrow=ERone;startFill=0;" parent="1" source="DBpOSrfO5cmfSUIclHoD-11" target="DBpOSrfO5cmfSUIclHoD-118" edge="1">
                    <mxGeometry width="100" height="100" relative="1" as="geometry">
                        <mxPoint x="-580" y="170" as="sourcePoint"/>
                        <mxPoint x="-480" y="70" as="targetPoint"/>
                    </mxGeometry>
                </mxCell>
                <mxCell id="DBpOSrfO5cmfSUIclHoD-131" value="Misc Tracker" style="shape=table;startSize=30;container=1;collapsible=1;childLayout=tableLayout;fixedRows=1;rowLines=0;fontStyle=1;align=center;resizeLast=1;" parent="1" vertex="1">
                    <mxGeometry x="-390" y="340" width="180" height="190" as="geometry"/>
                </mxCell>
                <mxCell id="DBpOSrfO5cmfSUIclHoD-132" value="" style="shape=partialRectangle;collapsible=0;dropTarget=0;pointerEvents=0;fillColor=none;top=0;left=0;bottom=1;right=0;points=[[0,0.5],[1,0.5]];portConstraint=eastwest;" parent="DBpOSrfO5cmfSUIclHoD-131" vertex="1">
                    <mxGeometry y="30" width="180" height="30" as="geometry"/>
                </mxCell>
                <mxCell id="DBpOSrfO5cmfSUIclHoD-133" value="PK" style="shape=partialRectangle;connectable=0;fillColor=none;top=0;left=0;bottom=0;right=0;fontStyle=1;overflow=hidden;" parent="DBpOSrfO5cmfSUIclHoD-132" vertex="1">
                    <mxGeometry width="30" height="30" as="geometry">
                        <mxRectangle width="30" height="30" as="alternateBounds"/>
                    </mxGeometry>
                </mxCell>
                <mxCell id="DBpOSrfO5cmfSUIclHoD-134" value="MiscId" style="shape=partialRectangle;connectable=0;fillColor=none;top=0;left=0;bottom=0;right=0;align=left;spacingLeft=6;fontStyle=5;overflow=hidden;" parent="DBpOSrfO5cmfSUIclHoD-132" vertex="1">
                    <mxGeometry x="30" width="150" height="30" as="geometry">
                        <mxRectangle width="150" height="30" as="alternateBounds"/>
                    </mxGeometry>
                </mxCell>
                <mxCell id="DBpOSrfO5cmfSUIclHoD-135" value="" style="shape=partialRectangle;collapsible=0;dropTarget=0;pointerEvents=0;fillColor=none;top=0;left=0;bottom=0;right=0;points=[[0,0.5],[1,0.5]];portConstraint=eastwest;" parent="DBpOSrfO5cmfSUIclHoD-131" vertex="1">
                    <mxGeometry y="60" width="180" height="30" as="geometry"/>
                </mxCell>
                <mxCell id="DBpOSrfO5cmfSUIclHoD-136" value="" style="shape=partialRectangle;connectable=0;fillColor=none;top=0;left=0;bottom=0;right=0;editable=1;overflow=hidden;" parent="DBpOSrfO5cmfSUIclHoD-135" vertex="1">
                    <mxGeometry width="30" height="30" as="geometry">
                        <mxRectangle width="30" height="30" as="alternateBounds"/>
                    </mxGeometry>
                </mxCell>
                <mxCell id="DBpOSrfO5cmfSUIclHoD-137" value="Date" style="shape=partialRectangle;connectable=0;fillColor=none;top=0;left=0;bottom=0;right=0;align=left;spacingLeft=6;overflow=hidden;" parent="DBpOSrfO5cmfSUIclHoD-135" vertex="1">
                    <mxGeometry x="30" width="150" height="30" as="geometry">
                        <mxRectangle width="150" height="30" as="alternateBounds"/>
                    </mxGeometry>
                </mxCell>
                <mxCell id="DBpOSrfO5cmfSUIclHoD-138" value="" style="shape=partialRectangle;collapsible=0;dropTarget=0;pointerEvents=0;fillColor=none;top=0;left=0;bottom=0;right=0;points=[[0,0.5],[1,0.5]];portConstraint=eastwest;" parent="DBpOSrfO5cmfSUIclHoD-131" vertex="1">
                    <mxGeometry y="90" width="180" height="30" as="geometry"/>
                </mxCell>
                <mxCell id="DBpOSrfO5cmfSUIclHoD-139" value="" style="shape=partialRectangle;connectable=0;fillColor=none;top=0;left=0;bottom=0;right=0;editable=1;overflow=hidden;" parent="DBpOSrfO5cmfSUIclHoD-138" vertex="1">
                    <mxGeometry width="30" height="30" as="geometry">
                        <mxRectangle width="30" height="30" as="alternateBounds"/>
                    </mxGeometry>
                </mxCell>
                <mxCell id="DBpOSrfO5cmfSUIclHoD-140" value="Sleep" style="shape=partialRectangle;connectable=0;fillColor=none;top=0;left=0;bottom=0;right=0;align=left;spacingLeft=6;overflow=hidden;" parent="DBpOSrfO5cmfSUIclHoD-138" vertex="1">
                    <mxGeometry x="30" width="150" height="30" as="geometry">
                        <mxRectangle width="150" height="30" as="alternateBounds"/>
                    </mxGeometry>
                </mxCell>
                <mxCell id="DBpOSrfO5cmfSUIclHoD-141" value="" style="shape=partialRectangle;collapsible=0;dropTarget=0;pointerEvents=0;fillColor=none;top=0;left=0;bottom=0;right=0;points=[[0,0.5],[1,0.5]];portConstraint=eastwest;" parent="DBpOSrfO5cmfSUIclHoD-131" vertex="1">
                    <mxGeometry y="120" width="180" height="30" as="geometry"/>
                </mxCell>
                <mxCell id="DBpOSrfO5cmfSUIclHoD-142" value="" style="shape=partialRectangle;connectable=0;fillColor=none;top=0;left=0;bottom=0;right=0;editable=1;overflow=hidden;" parent="DBpOSrfO5cmfSUIclHoD-141" vertex="1">
                    <mxGeometry width="30" height="30" as="geometry">
                        <mxRectangle width="30" height="30" as="alternateBounds"/>
                    </mxGeometry>
                </mxCell>
                <mxCell id="DBpOSrfO5cmfSUIclHoD-143" value="Weight" style="shape=partialRectangle;connectable=0;fillColor=none;top=0;left=0;bottom=0;right=0;align=left;spacingLeft=6;overflow=hidden;" parent="DBpOSrfO5cmfSUIclHoD-141" vertex="1">
                    <mxGeometry x="30" width="150" height="30" as="geometry">
                        <mxRectangle width="150" height="30" as="alternateBounds"/>
                    </mxGeometry>
                </mxCell>
                <mxCell id="DBpOSrfO5cmfSUIclHoD-144" value="" style="shape=partialRectangle;collapsible=0;dropTarget=0;pointerEvents=0;fillColor=none;top=0;left=0;bottom=0;right=0;points=[[0,0.5],[1,0.5]];portConstraint=eastwest;" parent="DBpOSrfO5cmfSUIclHoD-131" vertex="1">
                    <mxGeometry y="150" width="180" height="30" as="geometry"/>
                </mxCell>
                <mxCell id="DBpOSrfO5cmfSUIclHoD-145" value="" style="shape=partialRectangle;connectable=0;fillColor=none;top=0;left=0;bottom=0;right=0;editable=1;overflow=hidden;" parent="DBpOSrfO5cmfSUIclHoD-144" vertex="1">
                    <mxGeometry width="30" height="30" as="geometry">
                        <mxRectangle width="30" height="30" as="alternateBounds"/>
                    </mxGeometry>
                </mxCell>
                <mxCell id="DBpOSrfO5cmfSUIclHoD-146" value="Additional Notes" style="shape=partialRectangle;connectable=0;fillColor=none;top=0;left=0;bottom=0;right=0;align=left;spacingLeft=6;overflow=hidden;" parent="DBpOSrfO5cmfSUIclHoD-144" vertex="1">
                    <mxGeometry x="30" width="150" height="30" as="geometry">
                        <mxRectangle width="150" height="30" as="alternateBounds"/>
                    </mxGeometry>
                </mxCell>
                <mxCell id="DBpOSrfO5cmfSUIclHoD-147" value="" style="edgeStyle=entityRelationEdgeStyle;fontSize=12;html=1;endArrow=circle;endFill=0;rounded=0;exitX=1;exitY=1;exitDx=0;exitDy=0;startArrow=ERone;startFill=0;" parent="1" source="DBpOSrfO5cmfSUIclHoD-1" edge="1">
                    <mxGeometry width="100" height="100" relative="1" as="geometry">
                        <mxPoint x="-600" y="220" as="sourcePoint"/>
                        <mxPoint x="-390" y="363" as="targetPoint"/>
                    </mxGeometry>
                </mxCell>
            </root>
        </mxGraphModel>
    </diagram>
</mxfile>